HIERARCHY
ROOT Hips
{
  OFFSET 13.6774 106.653 -34.4427
  CHANNELS 6 Xposition Yposition Zposition Zrotation Xrotation Yrotation
  JOINT ToSpine
  {
    OFFSET -2.69724 7.43032 -0.144315
    CHANNELS 3 Zrotation Xrotation Yrotation
    JOINT Spine
    {
      OFFSET -0.0310711 10.7595 1.96963
      CHANNELS 3 Zrotation Xrotation Yrotation
      JOINT Spine1
      {
        OFFSET 19.9056 3.91189 0.764692
        CHANNELS 3 Zrotation Xrotation Yrotation
        JOINT Neck
        {
          OFFSET 25.9749 7.03908 -0.130764
          CHANNELS 3 Zrotation Xrotation Yrotation
          JOINT Head
          {
            OFFSET 9.52751 0.295786 -0.907742
            CHANNELS 3 Zrotation Xrotation Yrotation
            End Site
            {
              OFFSET 16.4037 0.713936 2.7358
            }
          }
        }
        JOINT LeftShoulder
        {
          OFFSET 17.7449 4.33886 11.7777
          CHANNELS 3 Zrotation Xrotation Yrotation
          JOINT LeftArm
          {
            OFFSET 0.911315 1.27913 9.80584
            CHANNELS 3 Zrotation Xrotation Yrotation
            JOINT LeftForeArm
            {
              OFFSET 28.6126 1.18197 -3.53199
              CHANNELS 3 Zrotation Xrotation Yrotation
              JOINT LeftHand
              {
                OFFSET 27.5088 0.0218783 0.327423
                CHANNELS 3 Zrotation Xrotation Yrotation
                End Site
                {
                  OFFSET 18.6038 -0.000155887 0.382096
                }
              }
            }
          }
        }
        JOINT RightShoulder
        {
          OFFSET 17.1009 2.89543 -12.2328
          CHANNELS 3 Zrotation Xrotation Yrotation
          JOINT RightArm
          {
            OFFSET 1.4228 0.178766 -10.211
            CHANNELS 3 Zrotation Xrotation Yrotation
            JOINT RightForeArm
            {
              OFFSET 28.733 1.87905 2.64907
              CHANNELS 3 Zrotation Xrotation Yrotation
              JOINT RightHand
              {
                OFFSET 27.4588 0.290562 -0.101845
                CHANNELS 3 Zrotation Xrotation Yrotation
                End Site
                {
                  OFFSET 17.8396 -0.255518 -0.000602873
                }
              }
            }
          }
        }
      }
    }
  }
  JOINT LeftUpLeg
  {
    OFFSET -5.61296 -2.22332 -10.2353
    CHANNELS 3 Zrotation Xrotation Yrotation
    JOINT LeftLeg
    {
      OFFSET 2.56703 -44.7417 -7.93097
      CHANNELS 3 Zrotation Xrotation Yrotation
      JOINT LeftFoot
      {
        OFFSET 3.16933 -46.5642 -3.96578
        CHANNELS 3 Zrotation Xrotation Yrotation
        JOINT LeftToeBase
        {
          OFFSET 0.346054 -6.02161 12.8035
          CHANNELS 3 Zrotation Xrotation Yrotation
          End Site
          {
            OFFSET 0.134235 -1.35082 5.13018
          }
        }
      }
    }
  }
  JOINT RightUpLeg
  {
    OFFSET -5.7928 -1.72406 10.6446
    CHANNELS 3 Zrotation Xrotation Yrotation
    JOINT RightLeg
    {
      OFFSET -2.57161 -44.7178 -7.85259
      CHANNELS 3 Zrotation Xrotation Yrotation
      JOINT RightFoot
      {
        OFFSET -3.10148 -46.5936 -4.03391
        CHANNELS 3 Zrotation Xrotation Yrotation
        JOINT RightToeBase
        {
          OFFSET -0.0828122 -6.13587 12.8035
          CHANNELS 3 Zrotation Xrotation Yrotation
          End Site
          {
            OFFSET -0.131328 -1.35082 5.13018
          }
        }
      }
    }
  }
}
MOTION
Frames: 12
Frame Time: 0.03333333333333333
0.0000 93.1000 0.0000 -55.7586 -48.5461 -149.0862 -70.9940 0.0804 88.0416 98.1433 75.0963 -10.4579 -0.0071 27.2459 -5.6894 -126.8633 18.6163 -172.4962 -161.5061 55.3579 -159.5486 0.6742 -11.2747 -14.3567 -127.5797 41.4481 -93.0476 14.9985 -7.1071 -112.1977 0.1932 0.0742 0.3006 -0.4409 10.8371 10.7416 -71.0553 -53.9474 156.1598 16.9897 5.9056 108.8093 0.0764 0.2390 -0.1581 -33.9269 17.4192 92.9313 -2.3786 37.5238 -3.1862 -0.5732 -0.3603 -0.5562 1.3603 -3.8834 -2.2928 -56.4488 -8.6803 76.7154 -0.0636 28.3477 -2.5256 -5.7402 -4.5752 0.4997 1.6425 -19.4923 -3.5326 
0.0000 93.1000 0.0000 -58.8549 -46.1716 -153.2005 -70.9959 0.0472 88.0537 92.0276 74.7662 -4.2303 1.0029 26.1741 -5.3483 -128.1693 18.6429 -172.7964 -161.0547 55.5603 -160.1768 0.8705 -10.8010 -14.8182 -129.8621 40.4454 -89.9020 14.5799 -7.1453 -113.3924 0.1958 -0.0705 0.2496 -0.3452 10.5168 11.2268 -67.9654 -52.9880 158.6948 17.6132 5.9340 108.6933 0.1349 0.0907 0.1357 -36.8870 17.6756 93.1629 -1.4143 33.7717 -2.3326 -1.9778 1.1672 -0.0970 0.6692 -4.4457 0.4317 -56.4164 -8.6612 77.0827 -0.7486 27.4656 0.6367 -4.1548 -4.9354 0.3038 1.4529 -18.5861 -4.0303 
0.0000 93.1000 0.0000 -61.1848 -44.6237 -155.4928 -70.9971 0.0909 88.0417 89.7727 74.0812 -1.5700 1.3072 25.8223 -5.6206 -129.6139 18.5232 -172.0458 -163.4709 55.7000 -159.6536 0.5916 -10.8303 -14.7088 -130.5828 39.8051 -88.0708 14.0735 -7.2765 -113.9284 0.1810 0.1681 0.1649 -0.4004 10.0446 12.3636 -65.2434 -52.3761 160.4984 17.1871 5.8709 109.1726 0.0352 0.3398 0.0735 -38.4554 18.5931 94.5837 -1.9160 31.8734 -1.6779 -3.7018 2.2372 0.0695 -0.1398 -3.9195 2.9346 -56.6087 -8.0824 77.5246 -0.4622 26.2117 2.6340 -5.5621 -5.0144 0.7683 2.1311 -20.1721 -1.8442 
0.0000 93.1000 0.0000 -62.0638 -43.6393 -157.2747 -70.9873 0.0453 88.0273 87.6622 73.4158 0.1036 1.5214 25.2962 -5.3644 -130.0557 18.7432 -174.0297 -160.5844 55.6499 -163.7539 0.7529 -10.8753 -15.0700 -130.6425 39.6234 -87.1949 14.3472 -7.7581 -114.5055 0.0384 -0.0744 0.0548 -0.6080 9.3641 14.3429 -63.7370 -50.7250 159.9422 15.1138 5.9232 109.6629 0.1662 0.1063 0.2407 -40.2472 18.8792 96.4790 -1.2463 31.1910 -3.0267 -5.0409 1.4890 0.4120 -1.1760 -2.7888 4.8649 -57.5477 -7.6943 78.2594 -0.4631 25.9064 4.4716 -4.6606 -7.0789 0.7496 1.7739 -18.4314 -1.9288 
0.0000 93.1000 0.0000 -63.1061 -43.2829 -159.9653 -70.9783 0.0736 88.0034 84.7048 72.4328 3.3246 2.9241 24.4065 -4.6128 -130.4141 19.6306 -174.8547 -161.0271 55.9646 -163.5228 0.5144 -11.0257 -15.8471 -131.6259 39.3100 -85.6959 14.8923 -8.0986 -115.4151 0.0823 0.0801 -0.0896 -0.7311 8.9667 14.9153 -61.9888 -50.1059 160.5880 14.9974 5.5749 109.9523 0.3200 0.2499 -0.0095 -41.1836 19.6251 98.3017 -1.9505 31.1809 -5.7058 -5.9553 -0.6644 0.2914 -1.1444 -2.6560 7.3042 -57.7471 -7.5353 78.6397 -0.9843 26.5737 3.7343 -4.2951 -9.1032 0.7734 0.9256 -14.5132 -0.2248 
0.0000 93.1000 0.0000 -64.1357 -43.2667 -161.0467 -70.9705 0.0428 87.9967 84.0950 72.4419 3.8024 3.4305 23.9825 -4.3199 -130.5374 20.0595 -174.7495 -160.1186 56.6356 -164.3381 0.6047 -11.0348 -16.8514 -131.5958 39.3682 -84.9711 15.2683 -8.9635 -116.6796 0.0507 -0.0565 0.1141 -0.8435 8.8907 16.1445 -60.7250 -49.2658 160.1017 13.8553 5.2417 110.6090 0.4514 0.0792 -0.1622 -41.1949 18.8995 99.5382 -2.1598 33.0155 -8.3006 -6.4427 -3.2313 0.3551 -0.8168 -2.8951 5.8312 -57.6729 -6.9780 78.6646 -1.8268 28.1595 3.0207 -3.6348 -11.2430 0.6583 0.7925 -11.5762 -0.1395 
0.0000 93.1000 0.0000 -64.9870 -42.9175 -161.0084 -70.9704 0.0832 88.0016 84.3510 72.1927 4.2904 4.2006 23.3800 -4.0176 -130.5406 20.2393 -173.8150 -159.0739 56.9285 -167.1294 0.3288 -11.3225 -18.2210 -131.2516 39.5030 -83.8610 16.5478 -10.3056 -117.8861 -0.1547 0.1707 -0.0956 -0.8269 8.9603 17.1004 -60.4194 -48.9445 158.1211 13.3697 5.7956 110.9479 0.2870 0.3380 -0.2774 -41.2360 18.4450 98.9719 -2.6672 34.2860 -8.5554 -5.9568 -3.0028 -0.0166 1.0915 -6.1008 7.2047 -56.7763 -6.5012 79.1657 -1.1379 29.6020 2.4885 -3.7992 -12.2516 0.7759 1.0728 -11.1923 -1.2271 
0.0000 93.1000 0.0000 -65.7296 -42.5117 -162.0814 -70.9832 0.0477 88.0144 84.0167 72.0700 5.3794 4.7090 22.9163 -3.9974 -130.5036 19.9660 -172.1555 -159.8372 57.0585 -167.4193 0.5103 -10.8771 -18.3095 -130.9236 39.8025 -83.0169 17.3054 -10.8410 -118.5614 -0.1393 -0.0045 0.0064 -0.7652 9.1910 17.7781 -59.5139 -49.0252 157.6836 13.0892 5.3915 110.6541 0.3017 0.1461 -0.1657 -42.0455 17.7527 98.7226 -2.9428 33.3171 -6.7110 -5.1966 -2.1756 0.0393 1.0958 -6.8223 6.9110 -56.3149 -6.1176 79.7377 -1.0022 30.1101 4.0860 -3.9788 -13.2040 0.6456 0.9901 -9.4981 -3.2774 
0.0000 93.1000 0.0000 -66.7126 -41.6240 -163.5016 -70.9904 0.0829 88.0111 84.4702 72.1012 5.6947 4.9839 23.2244 -4.3968 -130.3010 19.5347 -170.9909 -158.7981 56.5415 -164.8041 0.3157 -11.0383 -18.5198 -131.4578 40.0276 -81.9532 16.9772 -10.3800 -118.4395 0.1879 0.1641 0.0292 -0.8041 9.8707 18.5338 -58.7333 -48.8881 156.6791 12.6221 5.4088 111.1667 0.0697 0.3655 -0.1781 -42.5978 18.3177 99.2681 -1.6421 32.6149 -6.2122 -5.9738 -1.9467 -0.0666 1.2586 -5.6934 6.7823 -55.4792 -5.8698 81.6826 -1.6780 31.6335 5.7124 -3.4383 -14.0916 0.7685 1.0634 -8.9048 -4.3453 
0.0000 93.1000 0.0000 -68.0573 -41.0796 -164.5456 -70.9855 0.0531 87.9956 86.2692 72.2563 4.3526 4.4156 23.3029 -4.0938 -129.4913 19.5008 -171.8399 -157.2713 56.2156 -166.4114 0.5007 -10.8340 -18.7707 -131.0432 39.2683 -81.8473 17.5511 -10.5746 -118.4425 0.1198 -0.0014 0.2680 -0.8574 9.8358 19.0802 -58.5544 -48.8201 156.5258 12.7117 5.0577 111.1621 0.1866 0.2423 0.0671 -43.7988 18.3344 99.1381 -2.6484 32.2066 -5.1789 -6.4675 -1.5898 0.0926 2.0903 -6.6094 3.6176 -54.9344 -5.3528 83.5054 -1.1728 33.3155 4.3558 -4.6754 -14.8684 0.9414 0.7245 -8.3069 -5.8393 
0.0000 93.1000 0.0000 -68.4061 -40.6989 -165.2756 -70.9919 0.0110 87.9947 86.9849 71.7598 3.8334 4.4027 23.1979 -4.2752 -128.6630 19.6830 -170.9211 -157.5293 56.3018 -167.4400 0.5999 -10.7907 -18.8378 -131.1596 38.4086 -81.7052 18.9223 -11.0627 -118.4957 -0.0502 -0.2062 0.5853 -0.8740 10.3774 19.0397 -58.4465 -48.3244 156.2835 12.7069 5.0152 110.8373 0.2747 0.0342 0.2045 -44.7784 17.4199 99.0944 -2.3760 31.9537 -5.0500 -6.0823 -1.8560 0.1370 2.1408 -6.8552 3.6543 -54.3619 -5.0050 86.4876 0.1122 34.7819 2.5011 -5.2210 -15.5266 0.9475 0.5865 -9.6710 -6.8041 
0.0000 93.1000 0.0000 -68.7505 -41.2341 -166.8327 -70.9849 0.0537 87.9859 86.2242 72.0885 3.6627 4.4449 23.0028 -3.8349 -128.5077 19.5140 -170.8369 -158.0558 56.0886 -165.8683 0.3499 -10.8109 -18.9700 -130.5438 37.8898 -82.1464 18.9555 -11.6880 -118.3779 0.0075 0.0447 0.3998 -0.8959 10.0839 19.2501 -59.2161 -48.2878 155.3909 11.9440 4.7767 110.7722 0.0110 0.3351 0.2823 -45.2273 16.5675 99.0066 -2.0135 32.2447 -4.6002 -6.2545 -1.6146 -0.1033 2.5345 -7.6681 3.1860 -53.3564 -4.0988 88.7920 0.1176 36.8473 0.0797 -5.9689 -15.8336 1.1988 0.9455 -11.4387 -9.0844 
